<svg width="25" height="25" viewBox="0 0 25 25" fill="none" xmlns="http://www.w3.org/2000/svg">
<g clip-path="url(#clip0_26_406)">
<path d="M12.4512 24.9146C14.152 24.9146 15.7531 24.5891 17.2546 23.938C18.7561 23.2869 20.0805 22.3877 21.228 21.2402C22.3755 20.0927 23.2747 18.7683 23.9258 17.2668C24.5768 15.7653 24.9023 14.1642 24.9023 12.4634C24.9023 10.7625 24.5768 9.16138 23.9258 7.65991C23.2747 6.15844 22.3755 4.83398 21.228 3.68652C20.0805 2.53906 18.754 1.63981 17.2485 0.98877C15.743 0.337728 14.1398 0.012207 12.439 0.012207C10.7381 0.012207 9.13697 0.337728 7.6355 0.98877C6.13403 1.63981 4.8116 2.53906 3.66821 3.68652C2.52482 4.83398 1.6276 6.15844 0.976562 7.65991C0.325521 9.16138 0 10.7625 0 12.4634C0 14.1642 0.325521 15.7653 0.976562 17.2668C1.6276 18.7683 2.52685 20.0927 3.67432 21.2402C4.82178 22.3877 6.14624 23.2869 7.64771 23.938C9.14917 24.5891 10.7503 24.9146 12.4512 24.9146Z" fill="#3F6EFF"/>
<path d="M12.4634 19.9219C11.8693 19.9219 11.377 19.7368 10.9863 19.3665C10.5957 18.9962 10.3801 18.5587 10.3394 18.0542H14.5874C14.5467 18.5587 14.3311 18.9962 13.9404 19.3665C13.5498 19.7368 13.0575 19.9219 12.4634 19.9219ZM6.92139 17.0044C6.604 17.0044 6.35376 16.9271 6.17065 16.7725C5.98755 16.6178 5.896 16.4184 5.896 16.1743C5.896 15.8162 6.03841 15.4805 6.32324 15.1672C6.60807 14.8539 6.90104 14.5386 7.20215 14.2212C7.35677 14.0585 7.47477 13.8489 7.55615 13.5925C7.63753 13.3362 7.69653 13.0656 7.73315 12.7808C7.76978 12.4959 7.79623 12.2233 7.8125 11.9629C7.84505 10.612 8.06071 9.49097 8.45947 8.59985C8.85824 7.70874 9.51741 7.09229 10.437 6.75049C10.5835 6.29476 10.8296 5.91024 11.1755 5.59692C11.5214 5.28361 11.9507 5.12695 12.4634 5.12695C12.7726 5.12695 13.0574 5.19206 13.3179 5.32227C13.0574 5.61524 12.854 5.94483 12.7075 6.31104C12.561 6.67725 12.4878 7.07194 12.4878 7.49512C12.4878 8.12175 12.6445 8.69141 12.9578 9.2041C13.2711 9.7168 13.6841 10.1257 14.1968 10.4309C14.7095 10.7361 15.2751 10.8887 15.8936 10.8887C16.3005 10.8887 16.6789 10.8154 17.0288 10.6689C17.0532 10.8724 17.0715 11.0819 17.0837 11.2976C17.096 11.5133 17.1021 11.735 17.1021 11.9629C17.1265 12.2233 17.155 12.498 17.1875 12.7869C17.22 13.0758 17.277 13.3463 17.3584 13.5986C17.4398 13.8509 17.5619 14.0585 17.7246 14.2212C18.0339 14.5305 18.3289 14.8438 18.6096 15.1611C18.8904 15.4785 19.0308 15.8162 19.0308 16.1743C19.0308 16.4184 18.9392 16.6178 18.7561 16.7725C18.573 16.9271 18.3187 17.0044 17.9932 17.0044H6.92139ZM15.8936 9.92432C15.2344 9.92432 14.6668 9.68629 14.1907 9.21021C13.7146 8.73413 13.4766 8.16244 13.4766 7.49512C13.4766 6.8278 13.7146 6.25814 14.1907 5.78613C14.6668 5.31413 15.2344 5.07812 15.8936 5.07812C16.5527 5.07812 17.1183 5.31413 17.5903 5.78613C18.0623 6.25814 18.2983 6.8278 18.2983 7.49512C18.2983 8.16244 18.0623 8.73413 17.5903 9.21021C17.1183 9.68629 16.5527 9.92432 15.8936 9.92432Z" fill="white"/>
</g>
<defs>
<clipPath id="clip0_26_406">
<rect width="24.9023" height="24.9146" fill="white"/>
</clipPath>
</defs>
</svg>
