<svg width="25" height="25" viewBox="0 0 25 25" fill="none" xmlns="http://www.w3.org/2000/svg">
<g clip-path="url(#clip0_27_481)">
<path d="M12.4512 24.9023C14.152 24.9023 15.7531 24.5768 17.2546 23.9258C18.7561 23.2747 20.0805 22.3755 21.228 21.228C22.3755 20.0805 23.2747 18.7561 23.9258 17.2546C24.5768 15.7531 24.9023 14.152 24.9023 12.4512C24.9023 10.7503 24.5768 9.14917 23.9258 7.64771C23.2747 6.14624 22.3755 4.82178 21.228 3.67432C20.0805 2.52685 18.754 1.6276 17.2485 0.976562C15.743 0.325521 14.1398 0 12.439 0C10.7381 0 9.13697 0.325521 7.6355 0.976562C6.13403 1.6276 4.8116 2.52685 3.66821 3.67432C2.52482 4.82178 1.6276 6.14624 0.976562 7.64771C0.325521 9.14917 0 10.7503 0 12.4512C0 14.152 0.325521 15.7531 0.976562 17.2546C1.6276 18.7561 2.52685 20.0805 3.67432 21.228C4.82178 22.3755 6.14624 23.2747 7.64771 23.9258C9.14917 24.5768 10.7503 24.9023 12.4512 24.9023ZM12.4512 22.8271C11.0107 22.8271 9.66388 22.5586 8.41064 22.0215C7.15739 21.4844 6.05672 20.7418 5.10864 19.7937C4.16056 18.8456 3.42 17.745 2.88696 16.4917C2.35392 15.2384 2.0874 13.8916 2.0874 12.4512C2.0874 11.0107 2.35392 9.66388 2.88696 8.41064C3.42 7.15739 4.15853 6.05469 5.10254 5.10254C6.04655 4.15039 7.14518 3.4078 8.39844 2.87476C9.65168 2.34172 10.9985 2.0752 12.439 2.0752C13.8794 2.0752 15.2283 2.34172 16.4856 2.87476C17.7429 3.4078 18.8456 4.15039 19.7937 5.10254C20.7418 6.05469 21.4844 7.15739 22.0215 8.41064C22.5586 9.66388 22.8271 11.0107 22.8271 12.4512C22.8271 13.8916 22.5606 15.2384 22.0276 16.4917C21.4945 17.745 20.7519 18.8456 19.7998 19.7937C18.8477 20.7418 17.745 21.4844 16.4917 22.0215C15.2384 22.5586 13.8916 22.8271 12.4512 22.8271Z" fill="#3F6EFF"/>
<path d="M12.4512 19.6777C13.0209 19.6777 13.4969 19.5007 13.8794 19.1467C14.2619 18.7927 14.4735 18.3675 14.5142 17.8711H10.3882C10.4289 18.3675 10.6404 18.7927 11.0229 19.1467C11.4054 19.5007 11.8815 19.6777 12.4512 19.6777ZM7.06787 16.8579H17.8345C18.1437 16.8579 18.3858 16.7826 18.5608 16.6321C18.7357 16.4815 18.8232 16.2882 18.8232 16.0522C18.8232 15.7105 18.6849 15.387 18.4082 15.0818C18.1315 14.7766 17.8467 14.4694 17.5537 14.1602C17.3991 14.0055 17.2811 13.8041 17.1997 13.5559C17.1183 13.3077 17.0613 13.0412 17.0288 12.7563C16.9963 12.4715 16.9719 12.203 16.9556 11.9507C16.9475 11.731 16.9373 11.5173 16.925 11.3098C16.9128 11.1023 16.8945 10.9009 16.8701 10.7056C16.5364 10.8521 16.1702 10.9253 15.7715 10.9253C15.1774 10.9253 14.6301 10.7768 14.1296 10.4797C13.6291 10.1827 13.2283 9.78598 12.9272 9.28955C12.6261 8.79313 12.4756 8.23974 12.4756 7.62939C12.4756 7.23063 12.5468 6.85018 12.6892 6.48804C12.8316 6.12589 13.0289 5.80648 13.2812 5.52979C13.0208 5.39958 12.7441 5.33447 12.4512 5.33447C11.9547 5.33447 11.5377 5.48909 11.2 5.79834C10.8623 6.10759 10.6242 6.47787 10.4858 6.90918C9.59878 7.24284 8.962 7.84099 8.57544 8.70361C8.18889 9.56625 7.97933 10.6486 7.94678 11.9507C7.9305 12.203 7.90405 12.4695 7.86743 12.7502C7.83081 13.031 7.77181 13.2975 7.69043 13.5498C7.60905 13.8021 7.49512 14.0055 7.34863 14.1602C7.0638 14.4694 6.78101 14.7766 6.50024 15.0818C6.21948 15.387 6.0791 15.7105 6.0791 16.0522C6.0791 16.2882 6.16658 16.4815 6.34155 16.6321C6.51652 16.7826 6.75862 16.8579 7.06787 16.8579ZM15.7715 9.98535C16.4062 9.98535 16.9535 9.75545 17.4133 9.29565C17.8731 8.83586 18.103 8.28044 18.103 7.62939C18.103 6.98649 17.8731 6.43718 17.4133 5.98145C16.9535 5.52572 16.4062 5.29785 15.7715 5.29785C15.1286 5.29785 14.5772 5.52572 14.1174 5.98145C13.6576 6.43718 13.4277 6.98649 13.4277 7.62939C13.4277 8.28044 13.6576 8.83586 14.1174 9.29565C14.5772 9.75545 15.1286 9.98535 15.7715 9.98535Z" fill="#3F6EFF"/>
</g>
<defs>
<clipPath id="clip0_27_481">
<rect width="24.9023" height="24.9146" fill="white"/>
</clipPath>
</defs>
</svg>
