<svg width="1080" height="1080" viewBox="0 0 1080 1080" fill="none" xmlns="http://www.w3.org/2000/svg">
<path fill-rule="evenodd" clip-rule="evenodd" d="M195 98H195.048C254.671 98.026 303 146.37 303 206C303 265.647 351.351 314 411 314C470.649 314 519 362.353 519 422C519 481.649 470.649 530 411 530C351.351 530 303 578.351 303 638C303 697.649 254.649 746 195 746C135.353 746 87 794.351 87 854C87 913.649 135.353 962 195 962C254.649 962 303 913.649 303 854C303 794.351 351.351 746 411 746C470.649 746 519 697.649 519 638V637.939C519.033 578.318 567.373 530 627 530C686.649 530 735 481.649 735 422C735 362.353 686.649 314 627 314C567.351 314 519 265.647 519 206C519 146.353 470.649 98 411 98C351.351 98 303 49.6465 303 -10C303 -69.6467 254.649 -118 195 -118C135.353 -118 87 -69.6467 87 -10C87 49.647 135.353 98 195 98ZM-21 98C38.647 98 87 146.353 87 206C87 265.647 135.353 314 195 314C254.649 314 303 362.354 303 422C303 481.649 254.649 530 195 530H194.938C135.32 530.033 87 578.373 87 638C87 697.649 38.647 746 -21 746C-80.6465 746 -129 697.649 -129 638C-129 578.351 -80.6465 530 -21 530C38.647 530 87 481.649 87 422C87 362.354 38.647 314 -21 314C-80.647 314 -129 265.647 -129 206C-129 146.353 -80.647 98 -21 98ZM-129 422C-129 481.649 -177.353 530 -237 530C-296.647 530 -345 481.649 -345 422C-345 362.353 -296.647 314 -237 314C-177.353 314 -129 362.353 -129 422Z" fill="#F2F2F7"/>
</svg>
