<svg width="10" height="16" viewBox="0 0 10 16" fill="none" xmlns="http://www.w3.org/2000/svg">
<g clip-path="url(#clip0_107_279)">
<path d="M9.00866 7.9954C9.00866 7.87874 8.98562 7.76975 8.93954 7.66843C8.89351 7.56709 8.82751 7.47343 8.74153 7.38745L1.44617 0.239494C1.28037 0.0798312 1.07772 0 0.838227 0C0.684706 0 0.543466 0.0368451 0.414508 0.110535C0.28555 0.184226 0.184226 0.284015 0.110535 0.409902C0.0368451 0.53579 0 0.678565 0 0.838227C0 1.06544 0.0798312 1.26502 0.239494 1.43696L6.94531 7.9954L0.239494 14.5538C0.0798312 14.7258 0 14.9254 0 15.1526C0 15.3122 0.0368451 15.455 0.110535 15.5809C0.184226 15.7068 0.28555 15.8065 0.414508 15.8802C0.543466 15.9539 0.684706 15.9908 0.838227 15.9908C1.07772 15.9908 1.28037 15.9079 1.44617 15.7421L8.74153 8.60337C8.82751 8.5174 8.89351 8.42375 8.93954 8.32244C8.98562 8.22107 9.00866 8.11206 9.00866 7.9954Z" fill="black"/>
</g>
<defs>
<clipPath id="clip0_107_279">
<rect width="9.00866" height="16" fill="white"/>
</clipPath>
</defs>
</svg>
