<svg width="18" height="15" viewBox="0 0 18 15" fill="none" xmlns="http://www.w3.org/2000/svg">
<path d="M4.09528 14.3893C4.42949 14.3893 4.86097 14.2977 5.38972 14.1145C5.91847 13.9314 6.47465 13.6933 7.05826 13.4002C7.64191 13.1072 8.18564 12.7936 8.68945 12.4593C9.73196 12.4868 10.7146 12.4043 11.6374 12.212C12.5603 12.0197 13.3995 11.7369 14.1553 11.3637C14.911 10.9906 15.562 10.543 16.1081 10.021C16.6544 9.49902 17.0759 8.91864 17.3727 8.27987C17.6695 7.6411 17.8178 6.96227 17.8178 6.24338C17.8178 5.37796 17.5996 4.56748 17.1632 3.81196C16.7267 3.05644 16.1206 2.39364 15.345 1.82356C14.5693 1.25348 13.6677 0.807036 12.6401 0.484222C11.6125 0.161407 10.5101 0 9.33293 0C8.15569 0 7.05329 0.161407 6.02572 0.484222C4.99815 0.807036 4.09653 1.25348 3.32085 1.82356C2.54519 2.39364 1.93912 3.05644 1.50265 3.81196C1.06618 4.56748 0.847946 5.37796 0.847946 6.24338C0.847946 6.9943 1.01131 7.70633 1.33804 8.37946C1.66477 9.05255 2.12368 9.65696 2.71479 10.1927C3.30589 10.7284 3.99552 11.1635 4.78365 11.4977C4.66893 11.6992 4.53175 11.9144 4.37212 12.1433C4.2125 12.3723 4.05288 12.5909 3.89325 12.7993C3.73363 13.0076 3.59646 13.1782 3.48173 13.3109C3.35203 13.4712 3.28968 13.6349 3.29467 13.802C3.29966 13.9692 3.36949 14.1088 3.50418 14.221C3.63886 14.3332 3.83589 14.3893 4.09528 14.3893ZM4.88092 13.2492C4.851 13.2583 4.83104 13.2549 4.82106 13.2389C4.81109 13.2228 4.81608 13.2033 4.83603 13.1805C5.04553 12.9423 5.27749 12.6665 5.53189 12.3528C5.78629 12.0392 5.97833 11.7724 6.10802 11.5526C6.21278 11.3741 6.2452 11.2092 6.20529 11.0581C6.16539 10.907 6.02572 10.7788 5.78629 10.6735C5.00314 10.3392 4.33596 9.94429 3.78476 9.48868C3.23356 9.03308 2.81331 8.53055 2.52399 7.9811C2.23467 7.4316 2.09002 6.85236 2.09002 6.24338C2.09002 5.53822 2.27583 4.87771 2.64745 4.26184C3.01907 3.64598 3.53535 3.10337 4.19629 2.63403C4.85723 2.16469 5.62666 1.79723 6.50459 1.53165C7.38254 1.26608 8.32532 1.13329 9.33293 1.13329C10.3405 1.13329 11.2833 1.26608 12.1612 1.53165C13.0392 1.79723 13.8086 2.16469 14.4695 2.63403C15.1305 3.10337 15.648 3.64598 16.0221 4.26184C16.3962 4.87771 16.5833 5.53822 16.5833 6.24338C16.5833 6.94396 16.3962 7.60333 16.0221 8.22146C15.648 8.83964 15.1305 9.38225 14.4695 9.84929C13.8086 10.3163 13.0392 10.6826 12.1612 10.9482C11.2833 11.2138 10.3405 11.3466 9.33293 11.3466C9.25811 11.3466 9.16332 11.3454 9.04858 11.3432C8.93383 11.3409 8.80164 11.3374 8.652 11.3329C8.49737 11.3329 8.35396 11.3569 8.22177 11.405C8.08957 11.453 7.95364 11.5274 7.81397 11.6282C7.5097 11.8297 7.17301 12.0391 6.80388 12.2566C6.43476 12.4742 6.0781 12.6722 5.73391 12.8508C5.38972 13.0293 5.10539 13.1621 4.88092 13.2492Z" fill="#3F6EFF"/>
</svg>
