<svg width="25" height="25" viewBox="0 0 25 25" fill="none" xmlns="http://www.w3.org/2000/svg">
<g clip-path="url(#clip0_27_445)">
<path d="M12.4512 24.9023C14.152 24.9023 15.7531 24.5768 17.2546 23.9258C18.7561 23.2747 20.0805 22.3755 21.228 21.228C22.3755 20.0805 23.2747 18.7561 23.9258 17.2546C24.5768 15.7531 24.9023 14.152 24.9023 12.4512C24.9023 10.7503 24.5768 9.14917 23.9258 7.64771C23.2747 6.14624 22.3755 4.82178 21.228 3.67432C20.0805 2.52685 18.754 1.6276 17.2485 0.976562C15.743 0.325521 14.1398 0 12.439 0C10.7381 0 9.13697 0.325521 7.6355 0.976562C6.13403 1.6276 4.8116 2.52685 3.66821 3.67432C2.52482 4.82178 1.6276 6.14624 0.976562 7.64771C0.325521 9.14917 0 10.7503 0 12.4512C0 14.152 0.325521 15.7531 0.976562 17.2546C1.6276 18.7561 2.52685 20.0805 3.67432 21.228C4.82178 22.3755 6.14624 23.2747 7.64771 23.9258C9.14917 24.5768 10.7503 24.9023 12.4512 24.9023ZM12.4512 22.8271C11.0107 22.8271 9.66388 22.5586 8.41064 22.0215C7.15739 21.4844 6.05672 20.7418 5.10864 19.7937C4.16056 18.8456 3.42 17.745 2.88696 16.4917C2.35392 15.2384 2.0874 13.8916 2.0874 12.4512C2.0874 11.0107 2.35392 9.66388 2.88696 8.41064C3.42 7.15739 4.15853 6.05469 5.10254 5.10254C6.04655 4.15039 7.14518 3.4078 8.39844 2.87476C9.65168 2.34172 10.9985 2.0752 12.439 2.0752C13.8794 2.0752 15.2283 2.34172 16.4856 2.87476C17.7429 3.4078 18.8456 4.15039 19.7937 5.10254C20.7418 6.05469 21.4844 7.15739 22.0215 8.41064C22.5586 9.66388 22.8271 11.0107 22.8271 12.4512C22.8271 13.8916 22.5606 15.2384 22.0276 16.4917C21.4945 17.745 20.7519 18.8456 19.7998 19.7937C18.8477 20.7418 17.745 21.4844 16.4917 22.0215C15.2384 22.5586 13.8916 22.8271 12.4512 22.8271Z" fill="#3F6EFF"/>
<path d="M11.1206 16.1255C12.0565 16.1255 12.9069 15.8956 13.6719 15.4358C14.4368 14.976 15.0492 14.3636 15.509 13.5986C15.9688 12.8337 16.1987 11.9833 16.1987 11.0474C16.1987 10.1115 15.9688 9.25903 15.509 8.48999C15.0492 7.72095 14.4368 7.10856 13.6719 6.65283C12.9069 6.1971 12.0565 5.96924 11.1206 5.96924C10.1929 5.96924 9.34448 6.19914 8.57544 6.65894C7.8064 7.11873 7.19198 7.73315 6.73218 8.5022C6.27238 9.27124 6.04248 10.1196 6.04248 11.0474C6.04248 11.9751 6.27238 12.8235 6.73218 13.5925C7.19198 14.3616 7.8064 14.976 8.57544 15.4358C9.34448 15.8956 10.1929 16.1255 11.1206 16.1255ZM11.1206 14.4653C10.5021 14.4653 9.93247 14.3087 9.41162 13.9954C8.89079 13.6821 8.47575 13.267 8.1665 12.7502C7.85726 12.2335 7.70264 11.6659 7.70264 11.0474C7.70264 10.4207 7.85726 9.84902 8.1665 9.33228C8.47575 8.81551 8.89079 8.4025 9.41162 8.09326C9.93247 7.78401 10.5021 7.62939 11.1206 7.62939C11.7472 7.62939 12.3189 7.78401 12.8357 8.09326C13.3524 8.4025 13.7634 8.81551 14.0686 9.33228C14.3738 9.84902 14.5264 10.4207 14.5264 11.0474C14.5264 11.6659 14.3738 12.2335 14.0686 12.7502C13.7634 13.267 13.3524 13.6821 12.8357 13.9954C12.3189 14.3087 11.7472 14.4653 11.1206 14.4653ZM17.8101 18.8232C18.103 18.8232 18.3431 18.7276 18.5303 18.5364C18.7174 18.3451 18.811 18.0949 18.811 17.7856C18.811 17.6473 18.7785 17.513 18.7134 17.3828C18.6483 17.2526 18.5669 17.1387 18.4692 17.041L14.6118 13.1592L13.0615 14.5752L16.9434 18.457C17.1794 18.7011 17.4683 18.8232 17.8101 18.8232Z" fill="#3F6EFF"/>
</g>
<defs>
<clipPath id="clip0_27_445">
<rect width="24.9023" height="24.9146" fill="white"/>
</clipPath>
</defs>
</svg>
