<svg width="25" height="25" viewBox="0 0 25 25" fill="none" xmlns="http://www.w3.org/2000/svg">
<g clip-path="url(#clip0_26_336)">
<path d="M12.4512 24.9023C14.152 24.9023 15.7531 24.5768 17.2546 23.9258C18.7561 23.2747 20.0805 22.3755 21.228 21.228C22.3755 20.0805 23.2747 18.7561 23.9258 17.2546C24.5768 15.7531 24.9023 14.152 24.9023 12.4512C24.9023 10.7503 24.5768 9.14917 23.9258 7.64771C23.2747 6.14624 22.3755 4.82178 21.228 3.67432C20.0805 2.52685 18.754 1.6276 17.2485 0.976562C15.743 0.325521 14.1398 0 12.439 0C10.7381 0 9.13697 0.325521 7.6355 0.976562C6.13403 1.6276 4.8116 2.52685 3.66821 3.67432C2.52482 4.82178 1.6276 6.14624 0.976562 7.64771C0.325521 9.14917 0 10.7503 0 12.4512C0 14.152 0.325521 15.7531 0.976562 17.2546C1.6276 18.7561 2.52685 20.0805 3.67432 21.228C4.82178 22.3755 6.14624 23.2747 7.64771 23.9258C9.14917 24.5768 10.7503 24.9023 12.4512 24.9023Z" fill="#3F6EFF"/>
<path d="M11.0962 16.2476C10.1359 16.2476 9.25903 16.0095 8.46558 15.5334C7.67212 15.0573 7.03939 14.4246 6.56738 13.6353C6.09538 12.8459 5.85938 11.971 5.85938 11.0107C5.85938 10.0504 6.09538 9.17154 6.56738 8.37402C7.03939 7.57649 7.67212 6.94173 8.46558 6.46973C9.25903 5.99772 10.1359 5.76172 11.0962 5.76172C12.0565 5.76172 12.9333 5.99772 13.7268 6.46973C14.5203 6.94173 15.153 7.57446 15.625 8.36792C16.097 9.16138 16.333 10.0423 16.333 11.0107C16.333 11.5478 16.2537 12.0646 16.095 12.561C15.9363 13.0575 15.7145 13.5091 15.4297 13.916L18.6646 17.1753C18.7703 17.2811 18.8558 17.4011 18.9209 17.5354C18.986 17.6697 19.0186 17.806 19.0186 17.9443C19.0186 18.2617 18.923 18.5221 18.7317 18.7256C18.5404 18.9291 18.2902 19.0308 17.981 19.0308C17.6392 19.0308 17.3421 18.9006 17.0898 18.6401L13.8672 15.4297C13.4684 15.682 13.035 15.8813 12.5671 16.0278C12.0992 16.1743 11.6089 16.2476 11.0962 16.2476ZM11.0962 14.5264C11.7391 14.5264 12.325 14.3657 12.854 14.0442C13.383 13.7227 13.8062 13.2955 14.1235 12.7625C14.4409 12.2294 14.5996 11.6455 14.5996 11.0107C14.5996 10.3597 14.4409 9.76767 14.1235 9.23462C13.8062 8.70158 13.383 8.27637 12.854 7.95898C12.325 7.6416 11.7391 7.48291 11.0962 7.48291C10.4533 7.48291 9.86529 7.64364 9.33228 7.96509C8.79923 8.28654 8.37402 8.71379 8.05664 9.24683C7.73926 9.77988 7.58057 10.3678 7.58057 11.0107C7.58057 11.6455 7.73926 12.2294 8.05664 12.7625C8.37402 13.2955 8.79923 13.7227 9.33228 14.0442C9.86529 14.3657 10.4533 14.5264 11.0962 14.5264Z" fill="white"/>
</g>
<defs>
<clipPath id="clip0_26_336">
<rect width="24.9023" height="24.9146" fill="white"/>
</clipPath>
</defs>
</svg>
