<svg width="16" height="13" viewBox="0 0 16 13" fill="none" xmlns="http://www.w3.org/2000/svg">
<path d="M7.89341 12.8396C7.97144 12.8396 8.06044 12.8206 8.1604 12.7825C8.2604 12.7445 8.34942 12.703 8.42745 12.6582C9.80281 11.8524 10.994 11.0074 12.0012 10.1232C13.0083 9.239 13.7862 8.33016 14.3349 7.39671C14.8836 6.46328 15.1579 5.51977 15.1579 4.56617C15.1579 3.97073 15.0543 3.42566 14.847 2.93096C14.6397 2.43625 14.352 2.00759 13.9837 1.64495C13.6155 1.28232 13.1839 1.00251 12.6889 0.805521C12.1938 0.608534 11.6585 0.51004 11.083 0.51004C10.371 0.51004 9.74426 0.676807 9.20289 1.01034C8.66156 1.34388 8.22507 1.78821 7.89341 2.34336C7.56663 1.79269 7.13256 1.34947 6.59121 1.0137C6.04984 0.677927 5.42069 0.51004 4.70376 0.51004C4.12825 0.51004 3.59421 0.608534 3.10162 0.805521C2.60903 1.00251 2.1774 1.28232 1.80673 1.64495C1.43607 2.00759 1.1471 2.43625 0.939824 2.93096C0.732545 3.42566 0.628906 3.97073 0.628906 4.56617C0.628906 5.51977 0.903245 6.46328 1.45192 7.39671C2.0006 8.33016 2.77972 9.239 3.78929 10.1232C4.79886 11.0074 5.99132 11.8524 7.36668 12.6582C7.44471 12.703 7.53371 12.7445 7.63367 12.7825C7.73368 12.8206 7.82026 12.8396 7.89341 12.8396Z" fill="#FF2D55"/>
</svg>
