<svg width="16" height="14" viewBox="0 0 16 14" fill="none" xmlns="http://www.w3.org/2000/svg">
<path d="M0.430176 4.56559C0.430176 5.54051 0.710647 6.50511 1.27159 7.4594C1.83253 8.41372 2.62907 9.34287 3.6612 10.2468C4.69334 11.1508 5.91245 12.0147 7.31856 12.8386C7.39833 12.8843 7.48932 12.9267 7.59152 12.9656C7.69376 13.0045 7.78227 13.0239 7.85706 13.0239C7.93683 13.0239 8.02782 13.0045 8.13002 12.9656C8.23226 12.9267 8.32326 12.8843 8.40304 12.8386C9.80914 12.0147 11.027 11.1508 12.0566 10.2468C13.0863 9.34287 13.8816 8.41372 14.4425 7.4594C15.0035 6.50511 15.2839 5.54051 15.2839 4.56559C15.2839 3.95685 15.178 3.39959 14.9661 2.89383C14.7542 2.38807 14.4575 1.94982 14.076 1.57908C13.6946 1.20834 13.2458 0.922275 12.7298 0.720885C12.2137 0.519495 11.6515 0.4188 11.0432 0.4188C10.3501 0.4188 9.73059 0.5584 9.18459 0.8376C8.63864 1.1168 8.19613 1.48754 7.85706 1.94982C7.52298 1.48754 7.0817 1.1168 6.53323 0.8376C5.98475 0.5584 5.36397 0.4188 4.6709 0.4188C4.06758 0.4188 3.50788 0.519495 2.99181 0.720885C2.47575 0.922275 2.02574 1.20834 1.64181 1.57908C1.25788 1.94982 0.959956 2.38807 0.748043 2.89383C0.536132 3.39959 0.430176 3.95685 0.430176 4.56559ZM1.63433 4.56559C1.63433 3.95685 1.76522 3.42477 2.02699 2.96935C2.28876 2.51394 2.64777 2.15922 3.104 1.90519C3.56023 1.65117 4.07755 1.52415 4.65594 1.52415C5.12464 1.52415 5.53101 1.60082 5.87505 1.75415C6.2191 1.90748 6.51078 2.09857 6.7501 2.32742C6.98946 2.55628 7.18891 2.78513 7.34846 3.01398C7.45319 3.15129 7.54171 3.24397 7.614 3.29203C7.6863 3.34009 7.76732 3.36412 7.85706 3.36412C7.9468 3.36412 8.02657 3.33895 8.09638 3.2886C8.16619 3.23825 8.25595 3.14671 8.36566 3.01398C8.53518 2.7897 8.74084 2.562 8.98265 2.33086C9.2245 2.09972 9.51372 1.90748 9.85029 1.75415C10.1868 1.60082 10.5895 1.52415 11.0582 1.52415C11.6366 1.52415 12.1539 1.65117 12.6101 1.90519C13.0663 2.15922 13.4253 2.51394 13.6871 2.96935C13.9489 3.42477 14.0797 3.95685 14.0797 4.56559C14.0797 5.2018 13.9127 5.84602 13.5787 6.49827C13.2446 7.1505 12.7921 7.79012 12.2212 8.41715C11.6503 9.04422 11.0021 9.64268 10.2766 10.2125C9.55109 10.7823 8.79692 11.3053 8.0141 11.7813C7.92934 11.8362 7.87699 11.8637 7.85706 11.8637C7.83713 11.8637 7.78725 11.8362 7.70744 11.7813C6.92463 11.3053 6.17048 10.7823 5.445 10.2125C4.71951 9.64268 4.07007 9.04422 3.49666 8.41715C2.92325 7.79012 2.46951 7.1505 2.13544 6.49827C1.80137 5.84602 1.63433 5.2018 1.63433 4.56559Z" fill="#3F6EFF"/>
</svg>
