<svg width="25" height="25" viewBox="0 0 25 25" fill="none" xmlns="http://www.w3.org/2000/svg">
<g clip-path="url(#clip0_27_437)">
<path d="M12.4512 24.9023C14.152 24.9023 15.7531 24.5768 17.2546 23.9258C18.7561 23.2747 20.0805 22.3755 21.228 21.228C22.3755 20.0805 23.2747 18.7561 23.9258 17.2546C24.5768 15.7531 24.9023 14.152 24.9023 12.4512C24.9023 10.7503 24.5768 9.14917 23.9258 7.64771C23.2747 6.14624 22.3755 4.82178 21.228 3.67432C20.0805 2.52685 18.754 1.6276 17.2485 0.976562C15.743 0.325521 14.1398 0 12.439 0C10.7381 0 9.13697 0.325521 7.6355 0.976562C6.13403 1.6276 4.8116 2.52685 3.66821 3.67432C2.52482 4.82178 1.6276 6.14624 0.976562 7.64771C0.325521 9.14917 0 10.7503 0 12.4512C0 14.152 0.325521 15.7531 0.976562 17.2546C1.6276 18.7561 2.52685 20.0805 3.67432 21.228C4.82178 22.3755 6.14624 23.2747 7.64771 23.9258C9.14917 24.5768 10.7503 24.9023 12.4512 24.9023ZM12.4512 22.8271C11.0107 22.8271 9.66388 22.5586 8.41064 22.0215C7.15739 21.4844 6.05672 20.7418 5.10864 19.7937C4.16056 18.8456 3.42 17.745 2.88696 16.4917C2.35392 15.2384 2.0874 13.8916 2.0874 12.4512C2.0874 11.0107 2.35392 9.66388 2.88696 8.41064C3.42 7.15739 4.15853 6.05469 5.10254 5.10254C6.04655 4.15039 7.14518 3.4078 8.39844 2.87476C9.65168 2.34172 10.9985 2.0752 12.439 2.0752C13.8794 2.0752 15.2283 2.34172 16.4856 2.87476C17.7429 3.4078 18.8456 4.15039 19.7937 5.10254C20.7418 6.05469 21.4844 7.15739 22.0215 8.41064C22.5586 9.66388 22.8271 11.0107 22.8271 12.4512C22.8271 13.8916 22.5606 15.2384 22.0276 16.4917C21.4945 17.745 20.7519 18.8456 19.7998 19.7937C18.8477 20.7418 17.745 21.4844 16.4917 22.0215C15.2384 22.5586 13.8916 22.8271 12.4512 22.8271Z" fill="#3F6EFF"/>
<path d="M6.7749 17.1875C6.7749 17.6351 6.90307 17.983 7.15942 18.2312C7.41577 18.4794 7.77181 18.6035 8.22754 18.6035H16.6748C17.1305 18.6035 17.4866 18.4794 17.7429 18.2312C17.9992 17.983 18.1274 17.6351 18.1274 17.1875V12.0972L12.8296 7.66602C12.5855 7.44629 12.3291 7.44629 12.0605 7.66602L6.7749 12.0972V17.1875ZM14.1113 17.3828H10.791V13.2935C10.791 12.968 10.9578 12.8052 11.2915 12.8052H13.6108C13.9445 12.8052 14.1113 12.968 14.1113 13.2935V17.3828ZM4.73633 11.4502C4.73633 11.5885 4.78922 11.7147 4.89502 11.8286C5.00081 11.9425 5.14729 11.9995 5.33447 11.9995C5.42399 11.9995 5.5074 11.9771 5.58472 11.9324C5.66202 11.8876 5.73323 11.8327 5.79834 11.7676L12.1582 6.44531C12.264 6.36393 12.3637 6.32528 12.4573 6.32935C12.5509 6.33342 12.6465 6.37207 12.7441 6.44531L19.0918 11.7676C19.1651 11.8327 19.2403 11.8876 19.3176 11.9324C19.3949 11.9771 19.4784 11.9995 19.5679 11.9995C19.7306 11.9995 19.869 11.9507 19.9829 11.853C20.0968 11.7553 20.1538 11.6292 20.1538 11.4746C20.1538 11.2793 20.0846 11.1206 19.9463 10.9985L13.3301 5.43213C13.0615 5.2124 12.7706 5.10254 12.4573 5.10254C12.144 5.10254 11.853 5.2124 11.5845 5.43213L4.94385 10.9985C4.8055 11.1287 4.73633 11.2793 4.73633 11.4502ZM16.5039 8.53271L18.1274 9.8999V6.93359C18.1274 6.62435 17.9728 6.46973 17.6636 6.46973H16.9678C16.6585 6.46973 16.5039 6.62435 16.5039 6.93359V8.53271Z" fill="#3F6EFF"/>
</g>
<defs>
<clipPath id="clip0_27_437">
<rect width="24.9023" height="24.9146" fill="white"/>
</clipPath>
</defs>
</svg>
