<svg width="25" height="25" viewBox="0 0 25 25" fill="none" xmlns="http://www.w3.org/2000/svg">
<g clip-path="url(#clip0_6_485)">
<path d="M12.4512 24.9023C14.152 24.9023 15.7531 24.5768 17.2546 23.9258C18.7561 23.2747 20.0805 22.3755 21.228 21.228C22.3755 20.0805 23.2747 18.7561 23.9258 17.2546C24.5768 15.7531 24.9023 14.152 24.9023 12.4512C24.9023 10.7503 24.5768 9.14917 23.9258 7.64771C23.2747 6.14624 22.3755 4.82178 21.228 3.67432C20.0805 2.52685 18.754 1.6276 17.2485 0.976562C15.743 0.325521 14.1398 0 12.439 0C10.7381 0 9.13697 0.325521 7.6355 0.976562C6.13403 1.6276 4.8116 2.52685 3.66821 3.67432C2.52482 4.82178 1.6276 6.14624 0.976562 7.64771C0.325521 9.14917 0 10.7503 0 12.4512C0 14.152 0.325521 15.7531 0.976562 17.2546C1.6276 18.7561 2.52685 20.0805 3.67432 21.228C4.82178 22.3755 6.14624 23.2747 7.64771 23.9258C9.14917 24.5768 10.7503 24.9023 12.4512 24.9023Z" fill="#3F6EFF"/>
<path d="M4.50439 11.4136C4.50439 11.2345 4.57357 11.0799 4.71191 10.9497L11.5723 5.2002C11.8408 4.97233 12.1379 4.8584 12.4634 4.8584C12.7889 4.8584 13.09 4.97233 13.3667 5.2002L16.6382 7.94678V6.75049C16.6382 6.4331 16.801 6.27441 17.1265 6.27441H17.8345C18.16 6.27441 18.3228 6.4331 18.3228 6.75049V9.36279L20.2026 10.9497C20.341 11.0718 20.4102 11.2345 20.4102 11.438C20.4102 11.6007 20.3532 11.733 20.2393 11.8347C20.1254 11.9364 19.9829 11.9873 19.812 11.9873C19.7143 11.9873 19.6269 11.9629 19.5496 11.9141C19.4723 11.8652 19.3929 11.8083 19.3115 11.7432L12.7686 6.25C12.6628 6.17676 12.5611 6.1381 12.4634 6.13403C12.3657 6.12996 12.264 6.16862 12.1582 6.25L5.60303 11.7432C5.52979 11.8083 5.45451 11.8652 5.3772 11.9141C5.29989 11.9629 5.21241 11.9873 5.11475 11.9873C4.91944 11.9873 4.76889 11.9283 4.66309 11.8103C4.55729 11.6923 4.50439 11.5601 4.50439 11.4136ZM6.604 17.334V12.0972L12.0605 7.51953C12.3372 7.29166 12.6017 7.29166 12.854 7.51953L18.3228 12.0972V17.334C18.3228 17.7897 18.1885 18.1478 17.9199 18.4082C17.6514 18.6686 17.2852 18.7988 16.8213 18.7988H8.10547C7.63347 18.7988 7.26522 18.6686 7.00073 18.4082C6.73625 18.1478 6.604 17.7897 6.604 17.334ZM10.7544 17.5293H14.1724V13.3179C14.1724 12.9761 14.0015 12.8052 13.6597 12.8052H11.2671C10.9253 12.8052 10.7544 12.9761 10.7544 13.3179V17.5293Z" fill="white"/>
</g>
<defs>
<clipPath id="clip0_6_485">
<rect width="24.9023" height="24.9146" fill="white"/>
</clipPath>
</defs>
</svg>
