<svg width="40" height="40" viewBox="0 0 40 40" fill="none" xmlns="http://www.w3.org/2000/svg">
<path fill-rule="evenodd" clip-rule="evenodd" d="M20 8H20.0018C22.2101 8.00096 24 9.79147 24 12C24 14.2091 25.7908 16 28 16C30.2092 16 32 17.7909 32 20C32 22.2092 30.2092 24 28 24C25.7908 24 24 25.7908 24 28C24 30.2092 22.2092 32 20 32C17.7909 32 16 33.7908 16 36C16 38.2092 17.7909 40 20 40C22.2092 40 24 38.2092 24 36C24 33.7908 25.7908 32 28 32C30.2092 32 32 30.2092 32 28V27.9977C32.0012 25.7895 33.7916 24 36 24C38.2092 24 40 22.2092 40 20C40 17.7909 38.2092 16 36 16C33.7908 16 32 14.2091 32 12C32 9.79085 30.2092 8 28 8C25.7908 8 24 6.20913 24 4C24 1.79086 22.2092 0 20 0C17.7909 0 16 1.79086 16 4C16 6.20915 17.7909 8 20 8ZM12 8C14.2091 8 16 9.79085 16 12C16 14.2091 17.7909 16 20 16C22.2092 16 24 17.7909 24 20C24 22.2092 22.2092 24 20 24H19.9977C17.7896 24.0012 16 25.7916 16 28C16 30.2092 14.2091 32 12 32C9.79087 32 8 30.2092 8 28C8 25.7908 9.79087 24 12 24C14.2091 24 16 22.2092 16 20C16 17.7909 14.2091 16 12 16C9.79085 16 8 14.2091 8 12C8 9.79085 9.79085 8 12 8ZM8 20C8 22.2092 6.20915 24 4 24C1.79086 24 0 22.2092 0 20C0 17.7909 1.79086 16 4 16C6.20915 16 8 17.7909 8 20Z" fill="#3F6EFF"/>
</svg>
