<svg width="24" height="24" viewBox="0 0 24 24" fill="none" xmlns="http://www.w3.org/2000/svg">
<path d="M4.08898 24H19.8849C21.2479 24 22.2701 23.6636 22.9517 22.9907C23.6331 22.3179 23.9739 21.3087 23.9739 19.9631V4.06292C23.9739 2.71729 23.6331 1.70807 22.9517 1.03525C22.2701 0.362439 21.2479 0.0260315 19.8849 0.0260315H4.08898C2.72598 0.0260315 1.70374 0.362439 1.02224 1.03525C0.340748 1.70807 0 2.71729 0 4.06292V19.9631C0 21.3087 0.340748 22.3179 1.02224 22.9907C1.70374 23.6636 2.72598 24 4.08898 24Z" fill="#3F6EFF"/>
<path d="M5.63863 12.0065C5.63863 11.6679 5.74715 11.3923 5.96419 11.1795C6.18123 10.9669 6.45903 10.8606 6.79761 10.8606H10.8736V6.78458C10.8736 6.44601 10.9756 6.1682 11.1795 5.95116C11.3836 5.73413 11.6506 5.62561 11.9805 5.62561C12.319 5.62561 12.5946 5.73413 12.8073 5.95116C13.0201 6.1682 13.1264 6.44601 13.1264 6.78458V10.8606H17.2154C17.554 10.8606 17.8296 10.9669 18.0423 11.1795C18.255 11.3923 18.3613 11.6679 18.3613 12.0065C18.3613 12.3364 18.2528 12.6034 18.0357 12.8073C17.8188 13.0114 17.5453 13.1134 17.2154 13.1134H13.1264V17.2024C13.1264 17.541 13.0201 17.8166 12.8073 18.0292C12.5946 18.242 12.319 18.3483 11.9805 18.3483C11.6506 18.3483 11.3836 18.242 11.1795 18.0292C10.9756 17.8166 10.8736 17.541 10.8736 17.2024V13.1134H6.79761C6.45903 13.1134 6.18123 13.0114 5.96419 12.8073C5.74715 12.6034 5.63863 12.3364 5.63863 12.0065Z" fill="#FAFAFA"/>
</svg>
